<svg width="18" height="14" viewBox="0 0 18 14" fill="none" xmlns="http://www.w3.org/2000/svg">
<g clip-path="url(#clip0_296_163)">
<path d="M4.05 0C4.64674 0 5.21903 0.230468 5.64099 0.640704C6.06295 1.05094 6.3 1.60734 6.3 2.1875C6.3 2.76766 6.06295 3.32406 5.64099 3.7343C5.21903 4.14453 4.64674 4.375 4.05 4.375C3.45326 4.375 2.88097 4.14453 2.45901 3.7343C2.03705 3.32406 1.8 2.76766 1.8 2.1875C1.8 1.60734 2.03705 1.05094 2.45901 0.640704C2.88097 0.230468 3.45326 0 4.05 0ZM14.4 0C14.9967 0 15.569 0.230468 15.991 0.640704C16.4129 1.05094 16.65 1.60734 16.65 2.1875C16.65 2.76766 16.4129 3.32406 15.991 3.7343C15.569 4.14453 14.9967 4.375 14.4 4.375C13.8033 4.375 13.231 4.14453 12.809 3.7343C12.3871 3.32406 12.15 2.76766 12.15 2.1875C12.15 1.60734 12.3871 1.05094 12.809 0.640704C13.231 0.230468 13.8033 0 14.4 0ZM0 8.16758C0 6.55703 1.34437 5.25 3.00094 5.25H4.20187C4.64906 5.25 5.07375 5.3457 5.45625 5.51523C5.41969 5.71211 5.40281 5.91719 5.40281 6.125C5.40281 7.16953 5.87531 8.10742 6.62062 8.75C6.615 8.75 6.60937 8.75 6.60094 8.75H0.599062C0.27 8.75 0 8.4875 0 8.16758ZM11.3991 8.75C11.3934 8.75 11.3878 8.75 11.3794 8.75C12.1275 8.10742 12.5972 7.16953 12.5972 6.125C12.5972 5.91719 12.5775 5.71484 12.5437 5.51523C12.9262 5.34297 13.3509 5.25 13.7981 5.25H14.9991C16.6556 5.25 18 6.55703 18 8.16758C18 8.49023 17.73 8.75 17.4009 8.75H11.3991ZM6.3 6.125C6.3 5.42881 6.58446 4.76113 7.09081 4.26884C7.59716 3.77656 8.28392 3.5 9 3.5C9.71608 3.5 10.4028 3.77656 10.9092 4.26884C11.4155 4.76113 11.7 5.42881 11.7 6.125C11.7 6.82119 11.4155 7.48887 10.9092 7.98116C10.4028 8.47344 9.71608 8.75 9 8.75C8.28392 8.75 7.59716 8.47344 7.09081 7.98116C6.58446 7.48887 6.3 6.82119 6.3 6.125ZM3.6 13.2699C3.6 11.2574 5.27906 9.625 7.34906 9.625H10.6509C12.7209 9.625 14.4 11.2574 14.4 13.2699C14.4 13.6719 14.0653 14 13.6491 14H4.35094C3.9375 14 3.6 13.6746 3.6 13.2699Z" fill="#969696"/>
</g>
<defs>
<clipPath id="clip0_296_163">
<rect width="18" height="14" fill="white"/>
</clipPath>
</defs>
</svg>
