<svg width="12" height="14" viewBox="0 0 12 14" fill="none" xmlns="http://www.w3.org/2000/svg">
<g clip-path="url(#clip0_296_165)">
<path d="M6 1.75C4.81607 1.75 3.85714 2.72891 3.85714 3.9375V5.25H10.2857C11.2313 5.25 12 6.03477 12 7V12.25C12 13.2152 11.2313 14 10.2857 14H1.71429C0.76875 14 0 13.2152 0 12.25V7C0 6.03477 0.76875 5.25 1.71429 5.25H2.14286V3.9375C2.14286 1.76367 3.87054 0 6 0C7.54018 0 8.86607 0.921485 9.48482 2.25039C9.68839 2.68789 9.50625 3.21016 9.07768 3.41523C8.64911 3.62031 8.1375 3.43711 7.93661 2.99961C7.59107 2.25859 6.85446 1.75 6 1.75ZM6.85714 10.5C7.33125 10.5 7.71429 10.109 7.71429 9.625C7.71429 9.14102 7.33125 8.75 6.85714 8.75H5.14286C4.66875 8.75 4.28571 9.14102 4.28571 9.625C4.28571 10.109 4.66875 10.5 5.14286 10.5H6.85714Z" fill="#969696"/>
</g>
<defs>
<clipPath id="clip0_296_165">
<rect width="12" height="14" fill="white"/>
</clipPath>
</defs>
</svg>
