<svg width="24" height="20" viewBox="0 0 24 20" fill="none" xmlns="http://www.w3.org/2000/svg">
<g clip-path="url(#clip0_250_1194)">
<path d="M3.6 5C3.6 3.67392 4.10571 2.40215 5.00589 1.46447C5.90606 0.526784 7.12696 0 8.4 0C9.67304 0 10.8939 0.526784 11.7941 1.46447C12.6943 2.40215 13.2 3.67392 13.2 5C13.2 6.32608 12.6943 7.59785 11.7941 8.53553C10.8939 9.47322 9.67304 10 8.4 10C7.12696 10 5.90606 9.47322 5.00589 8.53553C4.10571 7.59785 3.6 6.32608 3.6 5ZM0 18.8398C0 14.9922 2.9925 11.875 6.68625 11.875H10.1138C13.8075 11.875 16.8 14.9922 16.8 18.8398C16.8 19.4805 16.3013 20 15.6863 20H1.11375C0.49875 20 0 19.4805 0 18.8398ZM18.9 12.1875V9.6875H16.5C16.0013 9.6875 15.6 9.26953 15.6 8.75C15.6 8.23047 16.0013 7.8125 16.5 7.8125H18.9V5.3125C18.9 4.79297 19.3013 4.375 19.8 4.375C20.2988 4.375 20.7 4.79297 20.7 5.3125V7.8125H23.1C23.5988 7.8125 24 8.23047 24 8.75C24 9.26953 23.5988 9.6875 23.1 9.6875H20.7V12.1875C20.7 12.707 20.2988 13.125 19.8 13.125C19.3013 13.125 18.9 12.707 18.9 12.1875Z" fill="white"/>
</g>
<defs>
<clipPath id="clip0_250_1194">
<rect width="24" height="20" fill="white"/>
</clipPath>
</defs>
</svg>
